{
  "source": "C:\\Users\\Peter\\Desktop\\stuff\\MIUN\\quantitative_research\\video_compression\\videos\\HEVC_CLASS_B\\BasketballDrive_1920x1080_50.y4m",
  "output": "C:\\Users\\Peter\\Desktop\\stuff\\MIUN\\quantitative_research\\video_compression\\compressed_videos\\HEVC_CLASS_B\\vp9\\4\\BasketballDrive_1920x1080_50_vp9.webm",
  "codec": "vp9",
  "ok": "Input #0, yuv4mpegpipe, from 'C:\\Users\\Peter\\Desktop\\stuff\\MIUN\\quantitative_research\\video_compression\\videos\\HEVC_CLASS_B\\BasketballDrive_1920x1080_50.y4m':\n  Duration: 00:00:10.00, start: 0.000000, bitrate: 1244162 kb/s\n  Stream #0:0: Video: rawvideo (I420 / 0x30323449), yuv420p(progressive), 1920x1080, 50 fps, 50 tbr, 50 tbn\n[out#0/webm @ 00000230a3b09b80] Codec AVOption b:a (set bitrate (in bits/s)) has not been used for any stream. The most likely reason is either wrong type (e.g. a video option with no video streams) or that it is a private option of some decoder which was not actually used for any stream.\nStream mapping:\n  Stream #0:0 -> #0:0 (rawvideo (native) -> vp9 (libvpx-vp9))\nPress [q] to stop, [?] for help\n[libvpx-vp9 @ 00000230a3b0bfc0] v1.15.2-100-g40561f514\nOutput #0, webm, to 'C:\\Users\\Peter\\Desktop\\stuff\\MIUN\\quantitative_research\\video_compression\\compressed_videos\\HEVC_CLASS_B\\vp9\\4\\BasketballDrive_1920x1080_50_vp9.webm':\n  Metadata:\n    encoder         : Lavf62.3.100\n  Stream #0:0: Video: vp9, yuv420p(tv, progressive), 1920x1080, q=2-31, 4000 kb/s, 50 fps, 1k tbn\n    Metadata:\n      encoder         : Lavc62.11.100 libvpx-vp9\n    Side data:\n      cpb: bitrate max/min/avg: 0/0/0 buffer size: 4000000 vbv_delay: N/A\nframe=    0 fps=0.0 q=0.0 size=       0KiB time=N/A bitrate=N/A speed=N/A elapsed=0:00:01.12    \nframe=    0 fps=0.0 q=0.0 size=       0KiB time=N/A bitrate=N/A speed=N/A elapsed=0:00:01.69    \nframe=    4 fps=1.8 q=53.0 size=       0KiB time=00:00:00.06 bitrate=  64.3kbits/s speed=0.0268x elapsed=0:00:02.23    \nframe=    7 fps=2.5 q=49.0 size=       0KiB time=00:00:00.14 bitrate=  27.5kbits/s speed=0.0497x elapsed=0:00:02.81    \nframe=    9 fps=2.7 q=48.0 size=       0KiB time=00:00:00.16 bitrate=  24.1kbits/s speed=0.0472x elapsed=0:00:03.39    \nframe=   11 fps=2.7 q=47.0 size=       0KiB time=00:00:00.22 bitrate=  17.5kbits/s speed=0.0545x elapsed=0:00:04.03    \nframe=   13 fps=2.8 q=47.0 size=       0KiB time=00:00:00.26 bitrate=  14.8kbits/s speed=0.057x elapsed=0:00:04.56    \nframe=   15 fps=2.9 q=45.0 size=       0KiB time=00:00:00.30 bitrate=  12.9kbits/s speed=0.0587x elapsed=0:00:05.11    \nframe=   18 fps=3.1 q=44.0 size=       0KiB time=00:00:00.36 bitrate=  10.7kbits/s speed=0.0628x elapsed=0:00:05.72    \nframe=   20 fps=3.1 q=44.0 size=       0KiB time=00:00:00.40 bitrate=   9.6kbits/s speed=0.0628x elapsed=0:00:06.37    \nframe=   22 fps=3.1 q=44.0 size=       0KiB time=00:00:00.44 bitrate=   8.8kbits/s speed=0.0628x elapsed=0:00:07.00    \nframe=   23 fps=3.0 q=30.0 size=       0KiB time=00:00:00.46 bitrate=   8.4kbits/s speed=0.0602x elapsed=0:00:07.64    \nframe=   26 fps=3.1 q=44.0 size=       0KiB time=00:00:00.52 bitrate=   7.4kbits/s speed=0.0624x elapsed=0:00:08.33    \nframe=   28 fps=3.1 q=45.0 size=       0KiB time=00:00:00.56 bitrate=   6.9kbits/s speed=0.0623x elapsed=0:00:08.98    \nframe=   30 fps=3.2 q=46.0 size=       0KiB time=00:00:00.60 bitrate=   6.4kbits/s speed=0.0631x elapsed=0:00:09.51    \nframe=   33 fps=3.3 q=47.0 size=       0KiB time=00:00:00.66 bitrate=   5.8kbits/s speed=0.0651x elapsed=0:00:10.14    \nframe=   34 fps=3.1 q=31.0 size=       0KiB time=00:00:00.68 bitrate=   5.7kbits/s speed=0.0624x elapsed=0:00:10.89    \nframe=   37 fps=3.2 q=45.0 size=       0KiB time=00:00:00.74 bitrate=   5.2kbits/s speed=0.0644x elapsed=0:00:11.48    \nframe=   39 fps=3.2 q=46.0 size=       0KiB time=00:00:00.78 bitrate=   4.9kbits/s speed=0.0646x elapsed=0:00:12.06    \nframe=   42 fps=3.3 q=46.0 size=       0KiB time=00:00:00.82 bitrate=   4.7kbits/s speed=0.0649x elapsed=0:00:12.63    \nframe=   44 fps=3.3 q=47.0 size=       0KiB time=00:00:00.88 bitrate=   4.4kbits/s speed=0.0659x elapsed=0:00:13.34    \nframe=   44 fps=3.2 q=47.0 size=       0KiB time=00:00:00.88 bitrate=   4.4kbits/s speed=0.0631x elapsed=0:00:13.94    \nframe=   47 fps=3.2 q=47.0 size=       0KiB time=00:00:00.92 bitrate=   4.2kbits/s speed=0.0629x elapsed=0:00:14.61    \nframe=   50 fps=3.2 q=48.0 size=       0KiB time=00:00:00.98 bitrate=   3.9kbits/s speed=0.0634x elapsed=0:00:15.45    \nframe=   52 fps=3.2 q=48.0 size=       0KiB time=00:00:01.04 bitrate=   3.7kbits/s speed=0.0643x elapsed=0:00:16.17    \nframe=   54 fps=3.2 q=49.0 size=       0KiB time=00:00:01.08 bitrate=   3.6kbits/s speed=0.0647x elapsed=0:00:16.69    \nframe=   55 fps=3.2 q=49.0 size=       0KiB time=00:00:01.10 bitrate=   3.5kbits/s speed=0.0639x elapsed=0:00:17.21    \nframe=   56 fps=3.2 q=33.0 size=       0KiB time=00:00:01.12 bitrate=   3.4kbits/s speed=0.0632x elapsed=0:00:17.73    \nframe=   58 fps=3.2 q=48.0 size=       0KiB time=00:00:01.16 bitrate=   3.3kbits/s speed=0.0636x elapsed=0:00:18.25    \nframe=   59 fps=3.1 q=49.0 size=       0KiB time=00:00:01.18 bitrate=   3.3kbits/s speed=0.0629x elapsed=0:00:18.76    \nframe=   61 fps=3.2 q=49.0 size=       0KiB time=00:00:01.22 bitrate=   3.2kbits/s speed=0.0633x elapsed=0:00:19.27    \nframe=   63 fps=3.2 q=50.0 size=       0KiB time=00:00:01.26 bitrate=   3.1kbits/s speed=0.0636x elapsed=0:00:19.79    \nframe=   64 fps=3.2 q=50.0 size=       0KiB time=00:00:01.28 bitrate=   3.0kbits/s speed=0.063x elapsed=0:00:20.30    \nframe=   65 fps=3.1 q=50.0 size=       0KiB time=00:00:01.30 bitrate=   3.0kbits/s speed=0.0624x elapsed=0:00:20.82    \nframe=   66 fps=3.1 q=50.0 size=       0KiB time=00:00:01.32 bitrate=   2.9kbits/s speed=0.0619x elapsed=0:00:21.33    \nframe=   68 fps=3.1 q=51.0 size=       0KiB time=00:00:01.36 bitrate=   2.8kbits/s speed=0.0622x elapsed=0:00:21.85    \nframe=   69 fps=3.1 q=50.0 size=       0KiB time=00:00:01.38 bitrate=   2.8kbits/s speed=0.0617x elapsed=0:00:22.36    \nframe=   71 fps=3.1 q=51.0 size=       0KiB time=00:00:01.42 bitrate=   2.7kbits/s speed=0.062x elapsed=0:00:22.88    \nframe=   72 fps=3.1 q=51.0 size=       0KiB time=00:00:01.44 bitrate=   2.7kbits/s speed=0.0615x elapsed=0:00:23.39    \nframe=   73 fps=3.1 q=34.0 size=       0KiB time=00:00:01.46 bitrate=   2.6kbits/s speed=0.0611x elapsed=0:00:23.91    \nframe=   75 fps=3.1 q=49.0 size=       0KiB time=00:00:01.50 bitrate=   2.6kbits/s speed=0.0614x elapsed=0:00:24.43    \nframe=   77 fps=3.1 q=49.0 size=       0KiB time=00:00:01.54 bitrate=   2.5kbits/s speed=0.0617x elapsed=0:00:24.94    \nframe=   79 fps=3.1 q=49.0 size=       0KiB time=00:00:01.58 bitrate=   2.4kbits/s speed=0.0621x elapsed=0:00:25.46    \nframe=   81 fps=3.1 q=49.0 size=       0KiB time=00:00:01.62 bitrate=   2.4kbits/s speed=0.0623x elapsed=0:00:25.98    \nframe=   83 fps=3.1 q=49.0 size=       0KiB time=00:00:01.66 bitrate=   2.3kbits/s speed=0.0626x elapsed=0:00:26.49    \nframe=   84 fps=3.1 q=38.0 size=       0KiB time=00:00:01.68 bitrate=   2.3kbits/s speed=0.0622x elapsed=0:00:27.01    \nframe=   86 fps=3.1 q=50.0 size=       0KiB time=00:00:01.72 bitrate=   2.2kbits/s speed=0.0625x elapsed=0:00:27.52    \nframe=   88 fps=3.1 q=49.0 size=       0KiB time=00:00:01.76 bitrate=   2.2kbits/s speed=0.0628x elapsed=0:00:28.04    \nframe=   89 fps=3.1 q=49.0 size=       0KiB time=00:00:01.78 bitrate=   2.2kbits/s speed=0.0623x elapsed=0:00:28.55    \nframe=   91 fps=3.1 q=49.0 size=       0KiB time=00:00:01.82 bitrate=   2.1kbits/s speed=0.0626x elapsed=0:00:29.08    \nframe=   93 fps=3.1 q=48.0 size=       0KiB time=00:00:01.86 bitrate=   2.1kbits/s speed=0.0628x elapsed=0:00:29.60    \nframe=   95 fps=3.2 q=49.0 size=       0KiB time=00:00:01.90 bitrate=   2.0kbits/s speed=0.0631x elapsed=0:00:30.11    \nframe=   96 fps=3.1 q=36.0 size=       0KiB time=00:00:01.92 bitrate=   2.0kbits/s speed=0.0627x elapsed=0:00:30.64    \nframe=   98 fps=3.1 q=48.0 size=       0KiB time=00:00:01.96 bitrate=   2.0kbits/s speed=0.0629x elapsed=0:00:31.15    \nframe=  100 fps=3.2 q=48.0 size=       0KiB time=00:00:02.00 bitrate=   1.9kbits/s speed=0.0632x elapsed=0:00:31.65    \nframe=  101 fps=3.1 q=49.0 size=       0KiB time=00:00:02.02 bitrate=   1.9kbits/s speed=0.0628x elapsed=0:00:32.18    \nframe=  103 fps=3.2 q=48.0 size=       0KiB time=00:00:02.06 bitrate=   1.9kbits/s speed=0.063x elapsed=0:00:32.69    \nframe=  105 fps=3.2 q=47.0 size=       0KiB time=00:00:02.10 bitrate=   1.8kbits/s speed=0.0632x elapsed=0:00:33.21    \nframe=  108 fps=3.2 q=48.0 size=       0KiB time=00:00:02.16 bitrate=   1.8kbits/s speed=0.064x elapsed=0:00:33.72    \nframe=  110 fps=3.2 q=48.0 size=       0KiB time=00:00:02.20 bitrate=   1.8kbits/s speed=0.0642x elapsed=0:00:34.24    \nframe=  112 fps=3.2 q=48.0 size=       0KiB time=00:00:02.24 bitrate=   1.7kbits/s speed=0.0644x elapsed=0:00:34.75    \nframe=  113 fps=3.2 q=26.0 size=       0KiB time=00:00:02.26 bitrate=   1.7kbits/s speed=0.064x elapsed=0:00:35.30    \nframe=  116 fps=3.2 q=55.0 size=       0KiB time=00:00:02.32 bitrate=   1.7kbits/s speed=0.0647x elapsed=0:00:35.86    \nframe=  119 fps=3.3 q=55.0 size=       0KiB time=00:00:02.38 bitrate=   1.6kbits/s speed=0.0654x elapsed=0:00:36.39    \nframe=  121 fps=3.3 q=37.0 size=       0KiB time=00:00:02.40 bitrate=   1.6kbits/s speed=0.065x elapsed=0:00:36.93    \nframe=  123 fps=3.3 q=49.0 size=       0KiB time=00:00:02.46 bitrate=   1.6kbits/s speed=0.0656x elapsed=0:00:37.48    \nframe=  126 fps=3.3 q=49.0 size=       0KiB time=00:00:02.50 bitrate=   1.5kbits/s speed=0.0657x elapsed=0:00:38.02    \nframe=  128 fps=3.3 q=50.0 size=       0KiB time=00:00:02.56 bitrate=   1.5kbits/s speed=0.0663x elapsed=0:00:38.60    \nframe=  128 fps=3.3 q=50.0 size=       0KiB time=00:00:02.56 bitrate=   1.5kbits/s speed=0.0654x elapsed=0:00:39.15    \nframe=  132 fps=3.3 q=53.0 size=    1024KiB time=00:00:02.62 bitrate=3201.8kbits/s speed=0.066x elapsed=0:00:39.67    \nframe=  135 fps=3.4 q=52.0 size=    1024KiB time=00:00:02.70 bitrate=3106.9kbits/s speed=0.0671x elapsed=0:00:40.20    \nframe=  139 fps=3.4 q=53.0 size=    1024KiB time=00:00:02.76 bitrate=3039.4kbits/s speed=0.0677x elapsed=0:00:40.76    \nframe=  140 fps=3.4 q=36.0 size=    1024KiB time=00:00:02.80 bitrate=2995.9kbits/s speed=0.0677x elapsed=0:00:41.36    \nframe=  142 fps=3.4 q=46.0 size=    1024KiB time=00:00:02.84 bitrate=2953.7kbits/s speed=0.0676x elapsed=0:00:41.99    \nframe=  145 fps=3.4 q=47.0 size=    1024KiB time=00:00:02.90 bitrate=2892.6kbits/s speed=0.0682x elapsed=0:00:42.50    \nframe=  147 fps=3.4 q=48.0 size=    1024KiB time=00:00:02.94 bitrate=2853.3kbits/s speed=0.0683x elapsed=0:00:43.06    \nframe=  149 fps=3.4 q=49.0 size=    1024KiB time=00:00:02.98 bitrate=2815.0kbits/s speed=0.0683x elapsed=0:00:43.59    \nframe=  150 fps=3.4 q=49.0 size=    1024KiB time=00:00:03.00 bitrate=2796.2kbits/s speed=0.068x elapsed=0:00:44.12    \nframe=  153 fps=3.4 q=50.0 size=    1024KiB time=00:00:03.06 bitrate=2741.4kbits/s speed=0.0685x elapsed=0:00:44.68    \nframe=  155 fps=3.4 q=50.0 size=    1024KiB time=00:00:03.10 bitrate=2706.0kbits/s speed=0.0685x elapsed=0:00:45.26    \nframe=  156 fps=3.4 q=51.0 size=    1024KiB time=00:00:03.12 bitrate=2688.7kbits/s speed=0.0681x elapsed=0:00:45.78    \nframe=  158 fps=3.4 q=49.0 size=    1024KiB time=00:00:03.16 bitrate=2654.6kbits/s speed=0.0682x elapsed=0:00:46.33    \nframe=  161 fps=3.4 q=47.0 size=    1024KiB time=00:00:03.22 bitrate=2605.2kbits/s speed=0.0687x elapsed=0:00:46.88    \nframe=  163 fps=3.4 q=47.0 size=    1024KiB time=00:00:03.26 bitrate=2573.2kbits/s speed=0.0687x elapsed=0:00:47.42    \nframe=  165 fps=3.4 q=48.0 size=    1024KiB time=00:00:03.30 bitrate=2542.0kbits/s speed=0.0688x elapsed=0:00:47.95    \nframe=  167 fps=3.4 q=48.0 size=    1024KiB time=00:00:03.34 bitrate=2511.6kbits/s speed=0.0687x elapsed=0:00:48.61    \nframe=  168 fps=3.4 q=31.0 size=    1024KiB time=00:00:03.36 bitrate=2496.6kbits/s speed=0.0683x elapsed=0:00:49.19    \nframe=  171 fps=3.4 q=49.0 size=    1024KiB time=00:00:03.42 bitrate=2452.8kbits/s speed=0.0687x elapsed=0:00:49.75    \nframe=  173 fps=3.4 q=49.0 size=    1024KiB time=00:00:03.46 bitrate=2424.5kbits/s speed=0.0688x elapsed=0:00:50.30    \nframe=  176 fps=3.5 q=49.0 size=    1024KiB time=00:00:03.50 bitrate=2396.7kbits/s speed=0.0688x elapsed=0:00:50.87    \nframe=  177 fps=3.4 q=49.0 size=    1024KiB time=00:00:03.54 bitrate=2369.7kbits/s speed=0.0688x elapsed=0:00:51.43    \nframe=  178 fps=3.4 q=48.0 size=    1024KiB time=00:00:03.56 bitrate=2356.4kbits/s speed=0.0685x elapsed=0:00:51.94    \nframe=  181 fps=3.4 q=48.0 size=    1024KiB time=00:00:03.62 bitrate=2317.3kbits/s speed=0.0689x elapsed=0:00:52.52    \nframe=  183 fps=3.5 q=48.0 size=    1024KiB time=00:00:03.66 bitrate=2292.0kbits/s speed=0.069x elapsed=0:00:53.04    \nframe=  186 fps=3.5 q=48.0 size=    1024KiB time=00:00:03.72 bitrate=2255.0kbits/s speed=0.0694x elapsed=0:00:53.56    \nframe=  188 fps=3.5 q=48.0 size=    1024KiB time=00:00:03.76 bitrate=2231.0kbits/s speed=0.0695x elapsed=0:00:54.11    \nframe=  189 fps=3.5 q=48.0 size=    1024KiB time=00:00:03.78 bitrate=2219.2kbits/s speed=0.0692x elapsed=0:00:54.64    \nframe=  191 fps=3.5 q=48.0 size=    1024KiB time=00:00:03.82 bitrate=2196.0kbits/s speed=0.0692x elapsed=0:00:55.19    \nframe=  194 fps=3.5 q=47.0 size=    1024KiB time=00:00:03.88 bitrate=2162.0kbits/s speed=0.0696x elapsed=0:00:55.74    \nframe=  196 fps=3.5 q=47.0 size=    1024KiB time=00:00:03.92 bitrate=2140.0kbits/s speed=0.0696x elapsed=0:00:56.28    \nframe=  199 fps=3.5 q=47.0 size=    1024KiB time=00:00:03.98 bitrate=2107.7kbits/s speed=0.0701x elapsed=0:00:56.81    \nframe=  200 fps=3.5 q=47.0 size=    1024KiB time=00:00:04.00 bitrate=2097.2kbits/s speed=0.0697x elapsed=0:00:57.39    \nframe=  203 fps=3.5 q=46.0 size=    1024KiB time=00:00:04.04 bitrate=2076.4kbits/s speed=0.0697x elapsed=0:00:57.99    \nframe=  205 fps=3.5 q=46.0 size=    1024KiB time=00:00:04.10 bitrate=2046.0kbits/s speed=0.07x elapsed=0:00:58.55    \nframe=  207 fps=3.5 q=47.0 size=    1024KiB time=00:00:04.14 bitrate=2026.2kbits/s speed=0.07x elapsed=0:00:59.13    \nframe=  210 fps=3.5 q=48.0 size=    1024KiB time=00:00:04.18 bitrate=2006.8kbits/s speed=0.07x elapsed=0:00:59.68    \nframe=  211 fps=3.5 q=49.0 size=    1024KiB time=00:00:04.22 bitrate=1987.8kbits/s speed=0.07x elapsed=0:01:00.26    \nframe=  213 fps=3.5 q=49.0 size=    1024KiB time=00:00:04.26 bitrate=1969.2kbits/s speed=0.07x elapsed=0:01:00.83    \nframe=  216 fps=3.5 q=49.0 size=    1024KiB time=00:00:04.32 bitrate=1941.8kbits/s speed=0.0704x elapsed=0:01:01.38    \nframe=  217 fps=3.5 q=49.0 size=    1024KiB time=00:00:04.34 bitrate=1932.9kbits/s speed=0.0701x elapsed=0:01:01.95    \nframe=  220 fps=3.5 q=48.0 size=    1024KiB time=00:00:04.40 bitrate=1906.5kbits/s speed=0.0704x elapsed=0:01:02.51    \nframe=  223 fps=3.5 q=48.0 size=    1024KiB time=00:00:04.46 bitrate=1880.9kbits/s speed=0.0707x elapsed=0:01:03.04    \nframe=  225 fps=3.5 q=48.0 size=    1024KiB time=00:00:04.50 bitrate=1864.1kbits/s speed=0.0707x elapsed=0:01:03.62    \nframe=  228 fps=3.6 q=46.0 size=    1024KiB time=00:00:04.56 bitrate=1839.6kbits/s speed=0.0711x elapsed=0:01:04.13    \nframe=  229 fps=3.5 q=46.0 size=    1024KiB time=00:00:04.58 bitrate=1831.6kbits/s speed=0.0708x elapsed=0:01:04.69    \nframe=  231 fps=3.5 q=49.0 size=    1024KiB time=00:00:04.62 bitrate=1815.7kbits/s speed=0.0707x elapsed=0:01:05.34    \nframe=  234 fps=3.6 q=48.0 size=    1024KiB time=00:00:04.68 bitrate=1792.4kbits/s speed=0.071x elapsed=0:01:05.90    \nframe=  236 fps=3.6 q=48.0 size=    1024KiB time=00:00:04.72 bitrate=1777.2kbits/s speed=0.071x elapsed=0:01:06.45    \nframe=  239 fps=3.6 q=49.0 size=    1024KiB time=00:00:04.78 bitrate=1754.9kbits/s speed=0.0713x elapsed=0:01:06.99    \nframe=  241 fps=3.6 q=33.0 size=    1024KiB time=00:00:04.82 bitrate=1740.4kbits/s speed=0.0713x elapsed=0:01:07.56    \nframe=  244 fps=3.6 q=46.0 size=    1024KiB time=00:00:04.86 bitrate=1726.1kbits/s speed=0.0713x elapsed=0:01:08.13    \nframe=  246 fps=3.6 q=47.0 size=    1024KiB time=00:00:04.92 bitrate=1705.0kbits/s speed=0.0716x elapsed=0:01:08.72    \nframe=  248 fps=3.6 q=48.0 size=    1024KiB time=00:00:04.96 bitrate=1691.3kbits/s speed=0.0716x elapsed=0:01:09.26    \nframe=  250 fps=3.6 q=48.0 size=    1024KiB time=00:00:04.98 bitrate=1684.5kbits/s speed=0.0713x elapsed=0:01:09.84    \nframe=  252 fps=3.6 q=47.0 size=    1024KiB time=00:00:05.04 bitrate=1664.4kbits/s speed=0.0716x elapsed=0:01:10.43    \nframe=  255 fps=3.6 q=47.0 size=    1024KiB time=00:00:05.08 bitrate=1651.3kbits/s speed=0.0716x elapsed=0:01:10.98    \nframe=  256 fps=3.6 q=47.0 size=    1024KiB time=00:00:05.12 bitrate=1638.4kbits/s speed=0.0715x elapsed=0:01:11.60    \nframe=  258 fps=3.6 q=46.0 size=    2304KiB time=00:00:05.16 bitrate=3657.8kbits/s speed=0.0715x elapsed=0:01:12.19    \nframe=  260 fps=3.6 q=45.0 size=    2304KiB time=00:00:05.20 bitrate=3629.7kbits/s speed=0.0715x elapsed=0:01:12.72    \nframe=  263 fps=3.6 q=46.0 size=    2304KiB time=00:00:05.26 bitrate=3588.3kbits/s speed=0.0718x elapsed=0:01:13.27    \nframe=  266 fps=3.6 q=46.0 size=    2304KiB time=00:00:05.32 bitrate=3547.8kbits/s speed=0.072x elapsed=0:01:13.88    \nframe=  267 fps=3.6 q=46.0 size=    2304KiB time=00:00:05.34 bitrate=3534.5kbits/s speed=0.0717x elapsed=0:01:14.43    \nframe=  271 fps=3.6 q=45.0 size=    2304KiB time=00:00:05.40 bitrate=3495.3kbits/s speed=0.072x elapsed=0:01:14.99    \nframe=  274 fps=3.6 q=44.0 size=    2304KiB time=00:00:05.46 bitrate=3456.8kbits/s speed=0.0722x elapsed=0:01:15.58    \nframe=  276 fps=3.6 q=43.0 size=    2304KiB time=00:00:05.52 bitrate=3419.3kbits/s speed=0.0724x elapsed=0:01:16.19    \nframe=  278 fps=3.6 q=44.0 size=    2304KiB time=00:00:05.56 bitrate=3394.7kbits/s speed=0.0725x elapsed=0:01:16.70    \nframe=  280 fps=3.6 q=44.0 size=    2304KiB time=00:00:05.60 bitrate=3370.4kbits/s speed=0.0725x elapsed=0:01:17.26    \nframe=  282 fps=3.6 q=45.0 size=    2304KiB time=00:00:05.64 bitrate=3346.5kbits/s speed=0.0725x elapsed=0:01:17.80    \nframe=  285 fps=3.6 q=46.0 size=    2304KiB time=00:00:05.70 bitrate=3311.3kbits/s speed=0.0727x elapsed=0:01:18.37    \nframe=  288 fps=3.6 q=47.0 size=    2304KiB time=00:00:05.74 bitrate=3288.2kbits/s speed=0.0727x elapsed=0:01:18.95    \nframe=  289 fps=3.6 q=47.0 size=    2304KiB time=00:00:05.78 bitrate=3265.5kbits/s speed=0.0727x elapsed=0:01:19.50    \nframe=  292 fps=3.6 q=46.0 size=    2304KiB time=00:00:05.82 bitrate=3243.0kbits/s speed=0.0726x elapsed=0:01:20.12    \nframe=  294 fps=3.6 q=47.0 size=    2304KiB time=00:00:05.88 bitrate=3209.9kbits/s speed=0.0729x elapsed=0:01:20.68    \nframe=  297 fps=3.7 q=47.0 size=    2304KiB time=00:00:05.94 bitrate=3177.5kbits/s speed=0.0731x elapsed=0:01:21.22    \nframe=  299 fps=3.7 q=48.0 size=    2304KiB time=00:00:05.98 bitrate=3156.2kbits/s speed=0.0731x elapsed=0:01:21.80    \nframe=  300 fps=3.6 q=49.0 size=    2304KiB time=00:00:06.00 bitrate=3145.7kbits/s speed=0.0728x elapsed=0:01:22.37    \nframe=  302 fps=3.6 q=51.0 size=    2304KiB time=00:00:06.04 bitrate=3124.9kbits/s speed=0.0728x elapsed=0:01:22.93    \nframe=  305 fps=3.7 q=51.0 size=    2304KiB time=00:00:06.08 bitrate=3104.3kbits/s speed=0.0728x elapsed=0:01:23.48    \nframe=  306 fps=3.6 q=51.0 size=    2304KiB time=00:00:06.12 bitrate=3084.0kbits/s speed=0.0728x elapsed=0:01:24.04    \nframe=  307 fps=3.6 q=32.0 size=    2304KiB time=00:00:06.14 bitrate=3074.0kbits/s speed=0.0726x elapsed=0:01:24.58    \nframe=  310 fps=3.6 q=50.0 size=    2304KiB time=00:00:06.20 bitrate=3044.3kbits/s speed=0.0729x elapsed=0:01:25.10    \nframe=  312 fps=3.6 q=50.0 size=    2304KiB time=00:00:06.24 bitrate=3024.7kbits/s speed=0.0729x elapsed=0:01:25.63    \nframe=  315 fps=3.7 q=50.0 size=    2304KiB time=00:00:06.30 bitrate=2995.9kbits/s speed=0.0731x elapsed=0:01:26.22    \nframe=  317 fps=3.7 q=50.0 size=    2304KiB time=00:00:06.34 bitrate=2977.0kbits/s speed=0.0731x elapsed=0:01:26.75    \nframe=  317 fps=3.6 q=50.0 size=    2304KiB time=00:00:06.34 bitrate=2977.0kbits/s speed=0.0726x elapsed=0:01:27.28    \nframe=  320 fps=3.6 q=49.0 size=    2304KiB time=00:00:06.40 bitrate=2949.1kbits/s speed=0.0729x elapsed=0:01:27.83    \nframe=  322 fps=3.6 q=49.0 size=    2304KiB time=00:00:06.44 bitrate=2930.8kbits/s speed=0.0729x elapsed=0:01:28.39    \nframe=  324 fps=3.6 q=49.0 size=    2304KiB time=00:00:06.48 bitrate=2912.7kbits/s speed=0.0729x elapsed=0:01:28.94    \nframe=  327 fps=3.7 q=51.0 size=    2304KiB time=00:00:06.54 bitrate=2886.0kbits/s speed=0.0731x elapsed=0:01:29.49    \nframe=  328 fps=3.6 q=51.0 size=    2304KiB time=00:00:06.56 bitrate=2877.2kbits/s speed=0.0729x elapsed=0:01:30.02    \nframe=  332 fps=3.7 q=48.0 size=    2304KiB time=00:00:06.64 bitrate=2842.5kbits/s speed=0.0733x elapsed=0:01:30.59    \nframe=  334 fps=3.7 q=48.0 size=    2304KiB time=00:00:06.68 bitrate=2825.5kbits/s speed=0.0733x elapsed=0:01:31.11    \nframe=  337 fps=3.7 q=46.0 size=    2304KiB time=00:00:06.74 bitrate=2800.4kbits/s speed=0.0735x elapsed=0:01:31.65    \nframe=  340 fps=3.7 q=47.0 size=    2304KiB time=00:00:06.80 bitrate=2775.6kbits/s speed=0.0738x elapsed=0:01:32.18    \nframe=  342 fps=3.7 q=46.0 size=    2304KiB time=00:00:06.84 bitrate=2759.4kbits/s speed=0.0737x elapsed=0:01:32.76    \nframe=  345 fps=3.7 q=45.0 size=    2304KiB time=00:00:06.90 bitrate=2735.4kbits/s speed=0.0739x elapsed=0:01:33.33    \nframe=  346 fps=3.7 q=44.0 size=    2304KiB time=00:00:06.92 bitrate=2727.5kbits/s speed=0.0737x elapsed=0:01:33.88    \nframe=  349 fps=3.7 q=43.0 size=    2304KiB time=00:00:06.98 bitrate=2704.1kbits/s speed=0.0739x elapsed=0:01:34.43    \nframe=  351 fps=3.7 q=43.0 size=    2304KiB time=00:00:07.02 bitrate=2688.7kbits/s speed=0.0739x elapsed=0:01:34.96    \nframe=  352 fps=3.7 q=43.0 size=    2304KiB time=00:00:07.04 bitrate=2681.0kbits/s speed=0.0737x elapsed=0:01:35.50    \nframe=  354 fps=3.7 q=47.0 size=    2304KiB time=00:00:07.06 bitrate=2673.4kbits/s speed=0.0735x elapsed=0:01:36.10    \nframe=  356 fps=3.7 q=46.0 size=    2304KiB time=00:00:07.12 bitrate=2650.9kbits/s speed=0.0736x elapsed=0:01:36.71    \nframe=  358 fps=3.7 q=47.0 size=    2304KiB time=00:00:07.16 bitrate=2636.1kbits/s speed=0.0736x elapsed=0:01:37.25    \nframe=  360 fps=3.7 q=47.0 size=    2304KiB time=00:00:07.20 bitrate=2621.4kbits/s speed=0.0736x elapsed=0:01:37.77    \nframe=  363 fps=3.7 q=49.0 size=    2304KiB time=00:00:07.26 bitrate=2599.8kbits/s speed=0.0739x elapsed=0:01:38.28    \nframe=  363 fps=3.7 q=49.0 size=    2304KiB time=00:00:07.26 bitrate=2599.8kbits/s speed=0.0735x elapsed=0:01:38.80    \nframe=  366 fps=3.7 q=43.0 size=    2304KiB time=00:00:07.30 bitrate=2585.5kbits/s speed=0.0735x elapsed=0:01:39.35    \nframe=  368 fps=3.7 q=45.0 size=    2304KiB time=00:00:07.36 bitrate=2564.5kbits/s speed=0.0736x elapsed=0:01:39.95    \nframe=  370 fps=3.7 q=45.0 size=    2304KiB time=00:00:07.40 bitrate=2550.6kbits/s speed=0.0736x elapsed=0:01:40.58    \nframe=  372 fps=3.7 q=45.0 size=    2304KiB time=00:00:07.44 bitrate=2536.9kbits/s speed=0.0736x elapsed=0:01:41.08    \nframe=  373 fps=3.7 q=45.0 size=    2304KiB time=00:00:07.46 bitrate=2530.1kbits/s speed=0.0734x elapsed=0:01:41.59    \nframe=  374 fps=3.7 q=46.0 size=    2304KiB time=00:00:07.48 bitrate=2523.3kbits/s speed=0.0732x elapsed=0:01:42.12    \nframe=  376 fps=3.7 q=48.0 size=    2304KiB time=00:00:07.52 bitrate=2509.9kbits/s speed=0.0733x elapsed=0:01:42.62    \nframe=  378 fps=3.7 q=45.0 size=    2304KiB time=00:00:07.56 bitrate=2496.6kbits/s speed=0.0733x elapsed=0:01:43.14    \nframe=  379 fps=3.7 q=46.0 size=    2304KiB time=00:00:07.58 bitrate=2490.0kbits/s speed=0.0731x elapsed=0:01:43.67    \nframe=  382 fps=3.7 q=46.0 size=    2304KiB time=00:00:07.64 bitrate=2470.5kbits/s speed=0.0733x elapsed=0:01:44.18    \nframe=  384 fps=3.7 q=46.0 size=    2304KiB time=00:00:07.68 bitrate=2457.6kbits/s speed=0.0734x elapsed=0:01:44.70    \nframe=  386 fps=3.7 q=44.0 size=    3584KiB time=00:00:07.72 bitrate=3803.1kbits/s speed=0.0734x elapsed=0:01:45.21    \nframe=  389 fps=3.7 q=44.0 size=    3584KiB time=00:00:07.78 bitrate=3773.8kbits/s speed=0.0736x elapsed=0:01:45.73    \nframe=  391 fps=3.7 q=45.0 size=    3584KiB time=00:00:07.82 bitrate=3754.5kbits/s speed=0.0736x elapsed=0:01:46.24    \nframe=  395 fps=3.7 q=47.0 size=    3584KiB time=00:00:07.90 bitrate=3716.5kbits/s speed=0.074x elapsed=0:01:46.75    \nframe=  397 fps=3.7 q=45.0 size=    3584KiB time=00:00:07.94 bitrate=3697.7kbits/s speed=0.074x elapsed=0:01:47.27    \nframe=  400 fps=3.7 q=45.0 size=    3584KiB time=00:00:08.00 bitrate=3670.0kbits/s speed=0.0742x elapsed=0:01:47.79    \nframe=  401 fps=3.7 q=46.0 size=    3584KiB time=00:00:08.02 bitrate=3660.9kbits/s speed=0.074x elapsed=0:01:48.30    \nframe=  404 fps=3.7 q=46.0 size=    3584KiB time=00:00:08.08 bitrate=3633.7kbits/s speed=0.0742x elapsed=0:01:48.82    \nframe=  407 fps=3.7 q=46.0 size=    3584KiB time=00:00:08.14 bitrate=3606.9kbits/s speed=0.0745x elapsed=0:01:49.33    \nframe=  409 fps=3.7 q=47.0 size=    3584KiB time=00:00:08.18 bitrate=3589.3kbits/s speed=0.0745x elapsed=0:01:49.85    \nframe=  412 fps=3.7 q=46.0 size=    3584KiB time=00:00:08.24 bitrate=3563.1kbits/s speed=0.0747x elapsed=0:01:50.37    \nframe=  414 fps=3.7 q=34.0 size=    3584KiB time=00:00:08.28 bitrate=3545.9kbits/s speed=0.0747x elapsed=0:01:50.88    \nframe=  417 fps=3.7 q=46.0 size=    3584KiB time=00:00:08.34 bitrate=3520.4kbits/s speed=0.0749x elapsed=0:01:51.40    \nframe=  419 fps=3.7 q=47.0 size=    3584KiB time=00:00:08.38 bitrate=3503.6kbits/s speed=0.0749x elapsed=0:01:51.91    \nframe=  420 fps=3.7 q=34.0 size=    3584KiB time=00:00:08.40 bitrate=3495.3kbits/s speed=0.0747x elapsed=0:01:52.42    \nframe=  423 fps=3.7 q=47.0 size=    3584KiB time=00:00:08.46 bitrate=3470.5kbits/s speed=0.0749x elapsed=0:01:52.94    \nframe=  425 fps=3.7 q=49.0 size=    3584KiB time=00:00:08.50 bitrate=3454.1kbits/s speed=0.0749x elapsed=0:01:53.46    \nframe=  426 fps=3.7 q=32.0 size=    3584KiB time=00:00:08.52 bitrate=3446.0kbits/s speed=0.0747x elapsed=0:01:53.98    \nframe=  429 fps=3.7 q=48.0 size=    3584KiB time=00:00:08.58 bitrate=3421.9kbits/s speed=0.0749x elapsed=0:01:54.50    \nframe=  431 fps=3.7 q=49.0 size=    3584KiB time=00:00:08.62 bitrate=3406.0kbits/s speed=0.0749x elapsed=0:01:55.01    \nframe=  434 fps=3.8 q=49.0 size=    3584KiB time=00:00:08.68 bitrate=3382.5kbits/s speed=0.0751x elapsed=0:01:55.54    \nframe=  436 fps=3.8 q=49.0 size=    3584KiB time=00:00:08.72 bitrate=3367.0kbits/s speed=0.0751x elapsed=0:01:56.06    \nframe=  437 fps=3.7 q=30.0 size=    3584KiB time=00:00:08.74 bitrate=3359.3kbits/s speed=0.075x elapsed=0:01:56.58    \nframe=  440 fps=3.8 q=51.0 size=    3584KiB time=00:00:08.80 bitrate=3336.4kbits/s speed=0.0752x elapsed=0:01:57.09    \nframe=  443 fps=3.8 q=52.0 size=    3584KiB time=00:00:08.86 bitrate=3313.8kbits/s speed=0.0753x elapsed=0:01:57.60    \nframe=  446 fps=3.8 q=53.0 size=    3584KiB time=00:00:08.92 bitrate=3291.5kbits/s speed=0.0755x elapsed=0:01:58.12    \nframe=  448 fps=3.8 q=39.0 size=    3584KiB time=00:00:08.96 bitrate=3276.8kbits/s speed=0.0755x elapsed=0:01:58.63    \nframe=  450 fps=3.8 q=50.0 size=    3584KiB time=00:00:09.00 bitrate=3262.2kbits/s speed=0.0755x elapsed=0:01:59.15    \nframe=  453 fps=3.8 q=49.0 size=    3584KiB time=00:00:09.06 bitrate=3240.6kbits/s speed=0.0757x elapsed=0:01:59.67    \nframe=  454 fps=3.8 q=37.0 size=    3584KiB time=00:00:09.08 bitrate=3233.5kbits/s speed=0.0756x elapsed=0:02:00.17    \nframe=  458 fps=3.8 q=48.0 size=    3584KiB time=00:00:09.16 bitrate=3205.3kbits/s speed=0.0759x elapsed=0:02:00.69    \nframe=  459 fps=3.8 q=48.0 size=    3584KiB time=00:00:09.18 bitrate=3198.3kbits/s speed=0.0757x elapsed=0:02:01.20    \nframe=  461 fps=3.8 q=52.0 size=    3584KiB time=00:00:09.22 bitrate=3184.4kbits/s speed=0.0757x elapsed=0:02:01.72    \nframe=  464 fps=3.8 q=51.0 size=    3584KiB time=00:00:09.28 bitrate=3163.8kbits/s speed=0.0759x elapsed=0:02:02.24    \nframe=  468 fps=3.8 q=51.0 size=    3584KiB time=00:00:09.36 bitrate=3136.8kbits/s speed=0.0763x elapsed=0:02:02.75    \nframe=  470 fps=3.8 q=51.0 size=    3584KiB time=00:00:09.40 bitrate=3123.4kbits/s speed=0.0762x elapsed=0:02:03.28    \nframe=  472 fps=3.8 q=46.0 size=    3584KiB time=00:00:09.44 bitrate=3110.2kbits/s speed=0.0763x elapsed=0:02:03.79    \nframe=  475 fps=3.8 q=47.0 size=    3584KiB time=00:00:09.50 bitrate=3090.5kbits/s speed=0.0764x elapsed=0:02:04.30    \nframe=  476 fps=3.8 q=47.0 size=    3584KiB time=00:00:09.52 bitrate=3084.0kbits/s speed=0.0763x elapsed=0:02:04.82    \nframe=  476 fps=3.8 q=47.0 size=    3584KiB time=00:00:09.52 bitrate=3084.0kbits/s speed=0.076x elapsed=0:02:05.33    \nframe=  476 fps=3.8 q=47.0 size=    3584KiB time=00:00:09.52 bitrate=3084.0kbits/s speed=0.0756x elapsed=0:02:05.85    \nframe=  476 fps=3.8 q=47.0 size=    3584KiB time=00:00:09.52 bitrate=3084.0kbits/s speed=0.0753x elapsed=0:02:06.36    \nframe=  476 fps=3.8 q=47.0 size=    3584KiB time=00:00:09.52 bitrate=3084.0kbits/s speed=0.075x elapsed=0:02:06.88    \nframe=  476 fps=3.7 q=47.0 size=    3584KiB time=00:00:09.52 bitrate=3084.0kbits/s speed=0.0747x elapsed=0:02:07.39    \nframe=  476 fps=3.7 q=47.0 size=    3584KiB time=00:00:09.52 bitrate=3084.0kbits/s speed=0.0744x elapsed=0:02:07.91    \nframe=  476 fps=3.7 q=47.0 size=    3584KiB time=00:00:09.52 bitrate=3084.0kbits/s speed=0.0741x elapsed=0:02:08.42    \nframe=  476 fps=3.7 q=47.0 size=    3584KiB time=00:00:09.52 bitrate=3084.0kbits/s speed=0.0738x elapsed=0:02:08.94    \n[out#0/webm @ 00000230a3b09b80] video:5012KiB audio:0KiB subtitle:0KiB other streams:0KiB global headers:0KiB muxing overhead: 0.081059%\nframe=  500 fps=3.9 q=48.0 Lsize=    5016KiB time=00:00:10.00 bitrate=4109.0kbits/s speed=0.0772x elapsed=0:02:09.45    \n",
  "seconds": 129.8970594406128,
  "probe_out": {}
}